<?xml version="1.0" standalone="no"?>
<!DOCTYPE svg PUBLIC "-//W3C//DTD SVG 1.1//EN" "http://www.w3.org/Graphics/SVG/1.1/DTD/svg11.dtd">
<svg xmlns="http://www.w3.org/2000/svg" viewBox="0 0 1538.02 1243.58" width="1538.02001953125" height="1243.5799560546875"><defs><style>.cls-1{fill:#fff;stroke:#fff;stroke-miterlimit:10;stroke-width:20px;}</style></defs><g id="Layer_2" data-name="Layer 2"><g id="Layer_1-2" data-name="Layer 1"><path class="cls-1" d="M313.69,334.07H193.2V326l10.52-.67Q219.41,324,226,319.18t6.6-14.22q0-9.65-5.59-25.31l-19.26-55.1H92.64L78.31,264.19a137.24,137.24,0,0,0-4.59,16.35,70.85,70.85,0,0,0-1.91,14.56q0,14.11,10.08,21.16t28.89,9.08l8.06.67v8.06H10V326l6.5-.9a41.78,41.78,0,0,0,20.38-8.4q8.28-6.6,15-19T66.66,263.3L145.27,50.09l-11-28.67Q163,20.74,172.82,10h.67l95,274.35q4.92,14.55,10,22.84A38.44,38.44,0,0,0,290,319.74q6.49,4.25,16.35,5.6l7.39.67ZM173.27,126.23q-13.89-39.41-22.4-61.81L96.45,214.48H204.17Z"/><path class="cls-1" d="M207.94,567.25a51,51,0,0,1-11.19,32.68Q185.56,614,165,621.65t-48.06,7.66a241.89,241.89,0,0,1-36-3v92a32.89,32.89,0,0,0,1.48,10.95A11.44,11.44,0,0,0,88,735.55q4.2,2.24,12.1,2.72l14.81,1v5.92h-92v-5.92l10.87-1q7.56-.66,11.44-2.8a10.93,10.93,0,0,0,5.26-6.17,34.26,34.26,0,0,0,1.4-10.95V538.12a36.78,36.78,0,0,0-1.31-11,11,11,0,0,0-5.19-6.25Q41.53,518.7,34,518l-11-1v-5.76H121.2q41.31,0,64,13.74t22.71,42.22m-45.18-37q-14.23-11.85-44.69-11.85h-4.44q-16,0-32.76.82V619.1a213.45,213.45,0,0,0,34.57,2.8q30.62,0,46.09-14.49T177,567.91v-1.65q0-24.19-14.24-36"/><path class="cls-1" d="M378.57,723.87a61.22,61.22,0,0,1-21.48,18.6,62.07,62.07,0,0,1-29.3,6.83,77.72,77.72,0,0,1-37.2-9q-16.79-9-26.83-27t-10-44.36q0-24.51,9.55-43.45t26.17-29.38a67.84,67.84,0,0,1,36.87-10.45q19.1,0,33.41,8.72A59.14,59.14,0,0,1,381.78,618a69,69,0,0,1,7.74,32.43,80.42,80.42,0,0,1-.5,8.55H284.67v8.73q0,32.91,12.34,51.76t37.37,18.85a46.83,46.83,0,0,0,31.19-11.19q13.24-11.19,18-31l6.42,1.16a67.57,67.57,0,0,1-11.44,26.58m-93.74-72h63.7a7.74,7.74,0,0,0,5.19-2.31,16.61,16.61,0,0,0,4.19-7,34.71,34.71,0,0,0,1.65-11.44q0-17.45-8.4-28.07t-24.85-10.61q-20.08,0-30.37,15.14t-11.11,44.28"/><path class="cls-1" d="M584,721.65a57.31,57.31,0,0,1-20.74,20.24q-12.93,7.41-29.88,7.41a71.21,71.21,0,0,1-35.71-9.22q-16.31-9.21-26-27.4T462,668.81q0-23.37,9.87-42.3a76.14,76.14,0,0,1,27.33-29.88q17.44-10.93,39.5-10.94,16.29,0,27.9,5.51T584,605.77A34.92,34.92,0,0,1,589.86,625q0,9.87-5,15.88a16.58,16.58,0,0,1-13.41,6,17.34,17.34,0,0,1-12.18-4.53,15.37,15.37,0,0,1-4.94-11.93,16.18,16.18,0,0,1,16.62-16.79,13.61,13.61,0,0,1,3.62.49q-2.46-8.88-11.11-14.89t-22.3-6q-21.9,0-35,17.69t-13.08,55.23q0,24.69,6.09,40.82t16.7,23.78a41,41,0,0,0,24.61,7.66q18.6,0,30.95-12.76t16.29-34l6.75,1a80,80,0,0,1-10.45,29"/><path class="cls-1" d="M832.5,745.18H780q.82-25.17.83-44.77h-.66a102.79,102.79,0,0,1-9.38,19.18,72.75,72.75,0,0,1-18.69,20.16Q740,749,723.37,749,701,749,690,736.54t-11-36V616.14q0-7.41-1.56-11.44a11.5,11.5,0,0,0-5.76-6.17q-4.2-2.14-12.27-2.8l-6.75-.5V589.8h55q-1,10.71-1,25.84V708q0,30,24.86,30a34.22,34.22,0,0,0,23.12-8.8,75.67,75.67,0,0,0,16.22-19.43,108.55,108.55,0,0,0,8.72-18.35V616.14q0-7.25-1.65-11.36a11.78,11.78,0,0,0-5.76-6.25q-4.11-2.14-12.18-2.8l-6.91-.5V589.8h55.14a219.29,219.29,0,0,0-1,23.05v109q0,8.4,3.62,12.26t12.84,4.86l8.89.82Z"/><path class="cls-1" d="M964.86,745.18H886.35v-5.43l8.56-.82q9.38-.82,13.16-4.61t3.79-12.51V519.35c0-4.49-.69-8-2.06-10.53a13.1,13.1,0,0,0-7-5.76c-3.3-1.32-8-2.2-14.16-2.63l-9.87-.83V494H940.5q-1.15,14.14-1.15,43.29V721.81q0,8.73,3.78,12.51t13.34,4.61l8.39.82Z"/><path class="cls-1" d="M1092.29,671.61a19.79,19.79,0,0,0-4.86-13.58q-4.86-5.52-13.74-5.51-9.56,0-14.4,6.25a25.31,25.31,0,0,0-5.52,13.33l-5.92-.16a29.54,29.54,0,0,1,3.53-12.18,26.94,26.94,0,0,1,9.22-10,24.69,24.69,0,0,1,13.91-4q13,0,20.49,7.9t7.49,19.75a42.51,42.51,0,0,1-3.21,16.46,70,70,0,0,1-7.82,14.15q-4.61,6.42-12.83,16.13-9.23,11-14.65,18.77a82.29,82.29,0,0,0-9.3,17.78,60.35,60.35,0,0,0-3.87,21.89q0,20.89,9.71,32.75t28.64,11.85a41.5,41.5,0,0,0,20.33-4.85A34.23,34.23,0,0,0,1123.07,805a38.13,38.13,0,0,0,4.77-19,36.75,36.75,0,0,0-3.46-16.62,14.51,14.51,0,0,1-5.84,7.9,17.51,17.51,0,0,1-10,2.8q-8.05,0-12.92-4.94a18.43,18.43,0,0,1,.33-25.27q5.19-5,13.74-5a24.27,24.27,0,0,1,14,4.52,31.65,31.65,0,0,1,10.53,12.76,42.86,42.86,0,0,1,4,18.76,49.22,49.22,0,0,1-6.91,25.84,48.24,48.24,0,0,1-19.84,18.19q-12.92,6.68-30,6.67-19.08,0-33.08-6.75a48.81,48.81,0,0,1-21.32-19q-7.32-12.27-7.32-28.72a56.18,56.18,0,0,1,4.77-23.71,68.86,68.86,0,0,1,11.85-18,215.11,215.11,0,0,1,18.77-17.53l16.62-14.16a91.35,91.35,0,0,0,15.15-16.13,27.44,27.44,0,0,0,5.43-16m-35.56-59.92a19.62,19.62,0,0,1,5.93-14.56,20,20,0,0,1,14.65-5.85,20.41,20.41,0,1,1,0,40.82,20,20,0,0,1-14.65-5.84,19.62,19.62,0,0,1-5.93-14.57"/><path class="cls-1" d="M1353,711.28q0,17-6.66,27.24t-20.82,10.29q-12.67,0-20.41-9t-8.89-27.07h-.33a74.41,74.41,0,0,1-22.39,25.76q-14.47,10.62-33.74,10.61a49,49,0,0,1-20.74-4.11,30.93,30.93,0,0,1-13.58-11.52,31.3,31.3,0,0,1-4.69-17.12A33.44,33.44,0,0,1,1207,696.3q6.18-8.56,18.6-15.72t33.5-15.23l38.18-14.48q.16-4,.17-11.52,0-23.22-8.89-35.14T1261,592.27q-13.82,0-22.3,5.93a26.54,26.54,0,0,0-11,15,19.48,19.48,0,0,1,3-.17q7.4,0,12,4.28t4.61,12.18q0,7.74-5,12.51a17.56,17.56,0,0,1-12.59,4.77,17,17,0,0,1-13.33-6q-5.28-6-5.27-15.23a33.66,33.66,0,0,1,6.25-19.34q6.25-9.13,18.19-14.81t28.23-5.68q20.42,0,34.07,8a49.3,49.3,0,0,1,20.25,22q6.58,14,6.58,32.1,0,9.06-.82,27.65-1.15,34.25-1.15,47.24,0,15.81,10.7,15.81,6.42,0,10.12-7.17t3.7-20V696.46H1353Zm-57.44-8.07q0-2.62.66-21.4.66-14.64.82-24.85l-32.59,13q-18.93,7.57-27.65,17.12t-8.73,24.2q0,12.68,6.59,19.58t17.77,6.92q13.5,0,24.78-10a78.79,78.79,0,0,0,18.35-24.53"/><path class="cls-1" d="M1528,607.41q0,8.9-5.1,14a17.6,17.6,0,0,1-13,5.1,17.22,17.22,0,0,1-12.1-4.45q-4.86-4.44-4.86-12.18a16.3,16.3,0,0,1,4.78-12q-13.17,1-22.8,16.87t-14.57,38.1v70q0,8.22,4,11.85t13.58,4.28l13.33.82v5.43h-84v-5.43l8.4-.82q9.54-.82,13.33-4.61t3.79-12.51V616.14q0-7.57-1.65-11.69a11.19,11.19,0,0,0-5.84-6.09q-4.2-2-12.27-2.63l-6.74-.5V589.8h54.31q-1.8,29-1.81,51.52h.5q5.1-22.55,16.7-38.18t28.73-15.64q11,0,17.11,5.84a18.81,18.81,0,0,1,6.09,14.07"/><path class="cls-1" d="M211.73,978.1a52,52,0,0,1-11.42,33.34q-11.43,14.36-32.42,22.17t-49,7.81a248,248,0,0,1-36.78-3v93.89a33.24,33.24,0,0,0,1.51,11.17,11.7,11.7,0,0,0,5.8,6.39q4.27,2.26,12.34,2.77l15.12,1v6H22.93v-6l11.09-1q7.73-.67,11.67-2.86a11.14,11.14,0,0,0,5.38-6.3,35.15,35.15,0,0,0,1.43-11.17V948.37a37,37,0,0,0-1.35-11.17,11.19,11.19,0,0,0-5.29-6.39q-3.95-2.26-11.67-2.94l-11.26-1V921H123.21q42.17,0,65.34,14t23.18,43.09m-46.11-37.8Q151.1,928.21,120,928.21h-4.54q-16.29,0-33.42.84v102a218.61,218.61,0,0,0,35.27,2.85q31.24,0,47-14.78t15.79-40.31v-1.68q0-24.69-14.53-36.79"/><path class="cls-1" d="M444,1137.92a62.27,62.27,0,0,1-21.92,19,63.23,63.23,0,0,1-29.89,7,79.34,79.34,0,0,1-38-9.15q-17.13-9.15-27.37-27.55t-10.25-45.27q0-25,9.74-44.34t26.71-30a69.26,69.26,0,0,1,37.62-10.67q19.48,0,34.1,8.9a60.36,60.36,0,0,1,22.51,24,70.44,70.44,0,0,1,7.89,33.09,81.35,81.35,0,0,1-.5,8.74H348.17v8.9q0,33.6,12.6,52.83t38.12,19.23a47.78,47.78,0,0,0,31.83-11.42q13.53-11.43,18.4-31.58l6.55,1.17A69,69,0,0,1,444,1137.92m-95.65-73.49h65a7.91,7.91,0,0,0,5.29-2.35,17,17,0,0,0,4.28-7.14,35.46,35.46,0,0,0,1.68-11.67q0-17.8-8.56-28.64t-25.37-10.83q-20.49,0-31,15.45t-11.33,45.18"/><path class="cls-1" d="M626.11,1007.83a76.5,76.5,0,0,1,78.78,0,79.14,79.14,0,0,1,28.39,30q10.49,19.07,10.49,42.58t-10.49,42.66a78.39,78.39,0,0,1-28.39,30,77,77,0,0,1-78.78,0,78.39,78.39,0,0,1-28.39-30q-10.49-19.14-10.49-42.66t10.49-42.58a79.14,79.14,0,0,1,28.39-30m39.39,149q23.85,0,35-19.57t11.17-56.86q0-76.43-46.19-76.43t-46.19,76.43q0,37.29,11.17,56.86t35,19.57"/><path class="cls-1" d="M1033,1035.12q7.82,17.89,7.81,41.74,0,26.21-9.32,45.78t-25.62,30q-16.29,10.41-37,10.41-17.8,0-30.4-8.31a54.1,54.1,0,0,1-18.82-20.41h-.5q.33,18,.34,30.23v45.19q0,8.89,3.86,12.85t13.6,4.78l8.57.84v5.38H865.43v-5.38l8.73-.84q9.58-.84,13.44-4.78t3.86-12.85V1028q0-7.74-1.68-11.93a11.37,11.37,0,0,0-6-6.22c-2.85-1.34-7-2.24-12.51-2.68l-6.89-.51v-5.54h55.43q-.84,16.8-.84,37.46h.34a73.76,73.76,0,0,1,21.41-29.06q14.37-11.93,34.69-11.93t35,9.83q14.7,9.83,22.51,27.71m-23.77,45.1q0-35.27-9.66-53.49t-32.16-18.23a40.75,40.75,0,0,0-28.81,11.59,78,78,0,0,0-19.06,28.39v73.74A56.46,56.46,0,0,0,936.65,1145q11.58,9.32,28.22,9.32,21.66,0,33-18.73t11.34-55.35"/><path class="cls-1" d="M1244.41,1159.67h-80.12v-5.54l8.74-.84q9.57-.84,13.43-4.7t3.87-12.77V929.22q0-6.88-2.1-10.75a13.32,13.32,0,0,0-7.14-5.88q-5-2-14.45-2.69l-10.07-.84v-5.71h63q-1.17,14.45-1.17,44.18v188.29q0,8.91,3.86,12.77t13.61,4.7l8.56.84Z"/><path class="cls-1" d="M1494.31,1137.92a62.45,62.45,0,0,1-21.92,19,63.3,63.3,0,0,1-29.9,7,79.28,79.28,0,0,1-38-9.15q-17.13-9.15-27.38-27.55t-10.25-45.27q0-25,9.74-44.34t26.71-30A69.27,69.27,0,0,1,1441,996.91q19.49,0,34.09,8.9a60.29,60.29,0,0,1,22.51,24,70.33,70.33,0,0,1,7.9,33.09,81.5,81.5,0,0,1-.51,8.74H1398.48v8.9q0,33.6,12.6,52.83t38.13,19.23A47.82,47.82,0,0,0,1481,1141.2q13.51-11.43,18.39-31.58l6.55,1.17a69.14,69.14,0,0,1-11.67,27.13m-95.66-73.49h65a7.89,7.89,0,0,0,5.29-2.35,17,17,0,0,0,4.29-7.14,35.46,35.46,0,0,0,1.68-11.67q0-17.8-8.57-28.64T1441,1003.8q-20.49,0-31,15.45t-11.34,45.18"/></g></g></svg>